<?xml version="1.0" standalone="no"?>
<!DOCTYPE svg PUBLIC "-//W3C//DTD SVG 20010904//EN"
 "http://www.w3.org/TR/2001/REC-SVG-20010904/DTD/svg10.dtd">
<svg version="1.0" xmlns="http://www.w3.org/2000/svg"
 width="758.000000pt" height="758.000000pt" viewBox="0 0 758.000000 758.000000"
 preserveAspectRatio="xMidYMid meet">
<metadata>
Created by potrace 1.14, written by Peter Selinger 2001-2017
</metadata>
<g transform="translate(0.000000,758.000000) scale(0.100000,-0.100000)"
fill="#000000" stroke="none">
<path d="M2282 7113 c2 -11 29 -23 90 -39 163 -43 368 -153 493 -263 70 -62
190 -185 220 -226 17 -22 33 -42 36 -45 4 -3 29 -40 58 -84 91 -140 189 -364
207 -472 2 -16 9 -49 14 -74 20 -98 19 -127 -8 -165 -19 -26 -33 -35 -56 -36
-17 -1 -40 -3 -51 -4 -11 -1 -47 -5 -80 -9 -194 -23 -302 -73 -345 -161 -42
-87 -6 -341 72 -500 30 -60 103 -167 138 -200 30 -29 38 -53 21 -71 -14 -14
-68 -112 -98 -178 l-27 -58 -46 6 c-25 4 -52 8 -60 9 -20 4 -191 100 -262 148
-268 182 -531 510 -663 829 -52 126 -100 277 -95 300 1 3 -3 17 -9 31 -5 15
-12 47 -16 70 -3 24 -8 62 -12 84 -3 22 -7 100 -8 173 -1 119 -4 134 -22 151
-40 38 -102 28 -125 -19 -24 -49 -15 -293 17 -455 3 -16 8 -39 10 -50 2 -11
11 -47 20 -80 9 -33 18 -64 19 -70 3 -11 4 -13 48 -130 36 -96 106 -243 126
-267 8 -10 12 -18 8 -18 -4 0 16 -34 44 -75 27 -41 50 -77 50 -80 0 -3 5 -11
10 -18 6 -7 22 -25 36 -42 14 -16 30 -38 35 -48 9 -16 8 -17 -8 -9 -27 14
-230 110 -293 139 -30 14 -63 29 -72 34 -76 39 -388 149 -469 164 -13 3 -35 7
-49 9 -181 35 -431 35 -600 1 -41 -9 -84 -17 -95 -19 -11 -2 -56 -15 -100 -30
-175 -60 -318 -161 -363 -258 -70 -150 33 -346 276 -526 42 -31 98 -68 124
-82 l46 -24 -56 -44 c-166 -128 -264 -254 -296 -376 -33 -125 18 -224 164
-320 38 -25 75 -46 83 -46 7 0 17 -4 23 -9 15 -14 123 -51 198 -67 122 -27
260 -41 393 -38 117 2 163 5 248 20 17 3 39 7 50 9 83 12 267 75 425 145 132
58 399 191 406 201 3 5 14 9 24 9 10 0 20 4 22 8 3 7 25 20 168 94 25 13 47
26 50 29 3 3 30 19 60 36 89 49 299 171 375 218 39 24 71 42 71 42 1 -1 -3
-27 -9 -58 l-11 -56 -65 -28 c-36 -16 -73 -33 -81 -39 -8 -6 -41 -24 -72 -41
-32 -16 -58 -33 -58 -37 0 -4 -5 -8 -11 -8 -23 0 -209 -149 -309 -249 -114
-113 -280 -313 -280 -337 0 -4 -8 -17 -19 -28 -10 -12 -29 -41 -42 -66 -13
-25 -27 -47 -30 -50 -10 -9 -105 -213 -129 -275 -12 -33 -27 -73 -33 -90 -6
-16 -12 -34 -13 -40 -1 -5 -7 -30 -14 -55 -7 -25 -14 -53 -16 -63 -2 -10 -6
-27 -9 -37 -32 -100 -53 -430 -32 -494 17 -51 96 -66 133 -25 13 15 17 44 19
161 2 79 11 184 20 233 9 50 19 104 21 120 13 70 90 279 145 390 122 249 310
491 505 648 32 26 67 55 77 63 9 7 21 14 26 14 5 0 11 4 13 9 3 10 165 112
182 115 6 1 21 8 34 14 18 10 22 10 23 0 6 -106 48 -187 112 -215 15 -7 27
-16 27 -20 0 -5 -21 -30 -46 -58 -46 -52 -185 -253 -189 -275 -1 -3 -14 -32
-29 -65 -64 -139 -98 -269 -112 -425 -8 -94 -8 -84 0 -157 15 -161 91 -397
216 -678 5 -11 32 -69 61 -130 28 -60 55 -119 60 -130 16 -37 140 -269 185
-347 24 -43 44 -82 44 -88 0 -5 5 -10 10 -10 6 0 10 -4 10 -9 0 -13 122 -225
132 -229 4 -2 8 -8 8 -14 0 -6 21 -45 48 -86 55 -90 76 -125 99 -170 9 -17 20
-32 25 -32 4 0 8 -4 8 -9 0 -10 60 -107 175 -284 l64 -99 94 144 c86 132 225
357 360 583 10 17 23 42 30 58 6 15 15 27 19 27 4 0 8 4 8 10 0 5 13 31 29 58
80 136 159 280 232 427 34 66 65 127 70 135 9 16 75 162 77 170 0 3 16 39 35
80 78 172 168 440 185 554 9 58 8 252 -1 311 -38 239 -150 478 -313 671 l-55
65 33 14 c76 32 121 111 127 223 2 25 204 -93 321 -187 133 -106 321 -306 377
-401 9 -17 21 -30 25 -30 4 0 8 -5 8 -10 0 -6 16 -34 35 -63 19 -28 35 -57 35
-64 0 -6 4 -13 8 -15 25 -10 175 -375 188 -458 1 -8 5 -26 8 -40 4 -14 9 -38
11 -55 3 -16 8 -37 10 -45 9 -34 18 -152 20 -263 1 -101 4 -121 21 -137 42
-42 118 -22 132 34 5 17 7 75 6 131 -7 363 -107 680 -319 1020 -38 61 -71 112
-74 115 -4 3 -33 39 -65 80 -62 78 -233 253 -300 305 -21 17 -43 35 -50 40
-49 45 -242 162 -342 207 -67 30 -72 35 -77 68 -7 44 -13 70 -22 93 -4 9 -4
17 0 17 4 0 78 -42 164 -93 254 -152 438 -257 450 -257 6 0 11 -4 11 -9 0 -5
8 -11 18 -14 9 -3 51 -25 92 -47 175 -97 530 -270 555 -270 8 0 15 -4 17 -9 3
-8 207 -81 283 -100 194 -49 454 -59 675 -26 117 18 272 70 367 123 79 43 169
139 186 199 45 150 -54 327 -279 505 l-64 50 108 72 c188 126 328 287 347 400
2 12 6 33 9 49 12 71 -51 184 -142 251 -66 48 -209 117 -272 131 -3 1 -23 7
-46 13 -182 53 -459 68 -654 37 -25 -3 -58 -9 -75 -11 -16 -3 -48 -10 -70 -15
-22 -6 -47 -12 -55 -14 -8 -2 -35 -11 -60 -20 -25 -9 -49 -17 -55 -18 -42 -11
-296 -116 -310 -128 -5 -5 -15 -9 -22 -9 -7 0 -100 -43 -205 -95 -106 -52
-194 -93 -196 -90 -2 2 1 10 7 17 6 7 25 29 41 48 16 19 30 38 30 42 0 4 6 13
13 20 13 14 68 95 80 118 4 8 21 38 37 65 52 85 118 229 156 340 50 145 67
209 89 345 19 116 26 327 13 376 -15 57 -95 76 -134 33 -14 -16 -18 -42 -20
-142 -2 -140 -9 -207 -29 -307 -3 -14 -8 -41 -12 -60 -9 -46 -10 -49 -13 -55
-1 -3 -3 -8 -4 -12 -44 -167 -145 -387 -255 -553 -111 -168 -268 -340 -411
-450 -25 -19 -47 -37 -50 -40 -7 -8 -120 -82 -150 -99 -80 -45 -160 -79 -197
-85 l-42 -6 -56 111 c-30 61 -62 118 -70 126 -24 23 -18 42 31 96 65 73 129
188 164 294 35 109 44 167 45 285 0 80 -2 89 -30 129 -60 85 -219 135 -468
148 -16 1 -17 9 -12 84 3 45 7 91 10 102 3 11 12 51 20 90 17 74 55 186 80
235 9 17 13 30 10 30 -4 0 2 12 12 28 10 15 27 45 38 67 26 52 127 204 160
239 14 15 25 29 25 32 0 11 160 166 220 214 142 113 318 204 474 246 56 14 82
26 84 37 3 15 -7 17 -70 17 -41 0 -78 -4 -84 -10 -5 -5 -18 -11 -29 -13 -55
-10 -292 -132 -355 -184 -8 -6 -42 -34 -74 -60 -224 -182 -409 -445 -505 -717
-36 -100 -59 -198 -68 -276 -5 -47 -9 -75 -12 -88 -1 -1 -13 10 -28 25 -29 29
-86 69 -91 64 -2 -1 -13 4 -26 13 -44 28 -147 49 -221 43 -77 -6 -165 -27
-165 -39 0 -4 -5 -8 -10 -8 -6 0 -28 -11 -49 -24 l-39 -25 -6 47 c-11 83 -16
105 -47 207 -17 55 -51 142 -75 194 -24 51 -44 97 -44 102 0 5 -4 9 -10 9 -5
0 -12 11 -16 25 -3 14 -10 25 -14 25 -5 0 -12 9 -15 20 -6 20 -101 152 -147
205 -46 54 -142 147 -202 195 -34 28 -66 55 -73 60 -70 57 -252 153 -360 189
-79 27 -186 29 -181 4z"/>
</g>
</svg>
