<svg width="379" height="334" viewBox="0 0 379 334" fill="none" xmlns="http://www.w3.org/2000/svg">
<rect width="379" height="334" fill="none"/>
<g clip-path="url(#clip0_0_1)">
<path d="M245 214.859C245 248.472 187.5 334 187.5 334C187.5 334 130 248.472 130 214.859C130 181.246 160 151 187.5 151C215 151 245 181.246 245 214.859Z" fill="#FFD600"/>
<mask id="mask0_0_1" style="mask-type:alpha" maskUnits="userSpaceOnUse" x="130" y="151" width="115" height="183">
<path d="M245 214.859C245 248.472 187.5 334 187.5 334C187.5 334 130 248.472 130 214.859C130 181.246 160 151 187.5 151C215 151 245 181.246 245 214.859Z" fill="#FFD600"/>
</mask>
<g mask="url(#mask0_0_1)">
<path d="M267.5 243.692C267.5 251.132 231.683 288.597 187.5 288.597C143.317 288.597 107.5 251.132 107.5 243.692C107.5 236.252 143.317 265.232 187.5 265.232C231.683 265.232 267.5 236.252 267.5 243.692Z" fill="black"/>
<path d="M267.5 205.806C267.5 214.415 231.683 244.034 187.5 244.034C143.317 244.034 107.5 214.415 107.5 205.806C107.5 197.196 143.317 219.017 187.5 219.017C231.683 219.017 267.5 197.196 267.5 205.806Z" fill="black"/>
<path d="M267.5 164.37C267.5 172.98 231.683 195.563 187.5 195.563C143.317 195.563 107.5 172.98 107.5 164.37C107.5 155.76 143.317 172.109 187.5 172.109C231.683 172.109 267.5 155.76 267.5 164.37Z" fill="black"/>
<path d="M267.5 284.358C267.5 292.574 231.683 333.941 187.5 333.941C143.317 333.941 107.5 292.574 107.5 284.358C107.5 276.143 143.317 311.629 187.5 311.629C231.683 311.629 267.5 276.143 267.5 284.358Z" fill="black"/>
</g>
<path d="M234 155.915C234 178.096 213.405 167.443 188 167.443C162.595 167.443 142 178.096 142 155.915C142 133.735 162.595 94 188 94C213.405 94 234 133.735 234 155.915Z" fill="black"/>
<circle cx="188" cy="83" r="23" fill="black"/>
<path d="M142 83.9417C142 70.7412 162.595 70.7412 188 70.7412C213.405 70.7412 234 70.7412 234 83.9417C234 102.591 223 128 188 128C153 128 142 102.591 142 83.9417Z" fill="black"/>
<mask id="mask1_0_1" style="mask-type:alpha" maskUnits="userSpaceOnUse" x="142" y="70" width="92" height="58">
<path d="M142 83.9417C142 70.7412 162.595 70.7412 188 70.7412C213.405 70.7412 234 70.7412 234 83.9417C234 102.591 223 128 188 128C153 128 142 102.591 142 83.9417Z" fill="black"/>
</mask>
<g mask="url(#mask1_0_1)">
<ellipse cx="230.5" cy="83" rx="19.5" ry="34" fill="#BAAE9B" fill-opacity="0.8"/>
<ellipse cx="149.5" cy="83" rx="19.5" ry="34" fill="#BAAE9B" fill-opacity="0.8"/>
</g>
<path d="M206.483 71.4837C206.483 39.4816 233.074 6.54396 263.633 0.432281" stroke="black" stroke-width="3" stroke-linecap="round"/>
<path d="M290.127 42.7506C292.754 83.1024 261.928 126.817 223.899 137.032" stroke="black" stroke-width="8" stroke-linecap="round"/>
<path d="M290.127 243.281C292.754 202.929 261.928 159.215 223.899 149" stroke="black" stroke-width="8" stroke-linecap="round"/>
<path d="M85.8331 243.281C83.2058 202.929 114.031 159.215 152.061 149" stroke="black" stroke-width="8" stroke-linecap="round"/>
<path d="M85.8331 42.7506C83.2058 83.1024 114.031 126.817 152.061 137.032" stroke="black" stroke-width="8" stroke-linecap="round"/>
<path d="M172.517 71.4837C172.517 39.4816 145.926 6.54396 115.367 0.432281" stroke="black" stroke-width="3" stroke-linecap="round"/>
<path d="M313.598 179.496C306.683 178.041 297.344 174.293 287.144 169.421C276.972 164.562 266.046 158.634 255.989 152.883C245.935 147.133 236.765 141.569 230.107 137.442C227.027 135.532 224.486 133.931 222.645 132.761C224.801 132.434 227.772 131.992 231.36 131.486C239.117 130.393 249.752 128.997 261.271 127.788C272.793 126.578 285.181 125.558 296.449 125.211C307.747 124.863 317.805 125.198 324.72 126.654C338.686 129.593 351.182 135.964 359.809 143.197C364.123 146.815 367.424 150.609 369.469 154.247C371.521 157.896 372.246 161.264 371.644 164.122C371.043 166.979 369.021 169.77 365.674 172.282C362.335 174.787 357.785 176.929 352.379 178.5C341.568 181.642 327.564 182.436 313.598 179.496Z" fill="white" stroke="black" stroke-width="3"/>
<path d="M329.086 145.41C322.132 146.665 312.069 146.709 300.785 146.035C289.533 145.363 277.179 143.985 265.697 142.443C254.218 140.901 243.627 139.199 235.906 137.882C232.333 137.272 229.376 136.745 227.23 136.355C229.105 135.24 231.691 133.712 234.825 131.893C241.599 127.959 250.926 122.662 261.142 117.206C271.361 111.748 282.454 106.138 292.762 101.575C303.098 96.9991 312.542 93.5231 319.496 92.2681C333.541 89.7334 347.516 90.9309 358.232 94.3842C363.59 96.1111 368.077 98.3837 371.341 100.984C374.615 103.592 376.555 106.44 377.074 109.313C377.592 112.187 376.77 115.533 374.614 119.121C372.465 122.698 369.056 126.396 364.639 129.887C355.806 136.868 343.131 142.875 329.086 145.41Z" fill="white" stroke="black" stroke-width="3"/>
<path d="M65.0135 179.496C71.9283 178.041 81.2678 174.293 91.4675 169.421C101.639 164.562 112.565 158.634 122.622 152.883C132.676 147.133 141.847 141.569 148.504 137.442C151.584 135.532 154.126 133.931 155.967 132.761C153.81 132.434 150.839 131.992 147.251 131.486C139.494 130.393 128.859 128.997 117.34 127.788C105.819 126.578 93.43 125.558 82.1626 125.211C70.8642 124.863 60.8065 125.198 53.8917 126.654C39.9257 129.593 27.4297 135.964 18.8026 143.197C14.4884 146.815 11.1876 150.609 9.14205 154.247C7.09079 157.896 6.36588 161.264 6.96726 164.122C7.56863 166.979 9.58996 169.77 12.9378 172.282C16.2763 174.787 20.8266 176.929 26.2328 178.5C37.0437 181.642 51.0475 182.436 65.0135 179.496Z" fill="white" stroke="black" stroke-width="3"/>
<path d="M49.5252 145.41C56.4792 146.665 66.5423 146.709 77.8259 146.035C89.0786 145.363 101.433 143.985 112.915 142.443C124.393 140.901 134.984 139.199 142.706 137.882C146.278 137.272 149.235 136.745 151.381 136.355C149.507 135.24 146.92 133.712 143.787 131.893C137.012 127.959 127.685 122.662 117.469 117.206C107.25 111.748 96.1574 106.138 85.8495 101.575C75.5133 96.9991 66.0695 93.5231 59.1155 92.2681C45.0704 89.7334 31.0954 90.9309 20.3798 94.3842C15.0212 96.1111 10.5347 98.3837 7.26997 100.984C3.99611 103.592 2.05627 106.44 1.53771 109.313C1.01914 112.187 1.84109 115.533 3.9969 119.121C6.14674 122.698 9.55575 126.396 13.9727 129.887C22.8052 136.868 35.4801 142.875 49.5252 145.41Z" fill="white" stroke="black" stroke-width="3"/>
</g>
<defs>
<clipPath id="clip0_0_1">
<rect width="379" height="334" fill="white"/>
</clipPath>
</defs>
</svg>
